<?xml version="1.0" encoding="UTF-8"?>
<svg width="309px" height="84px" viewBox="0 0 309 84" version="1.1" xmlns="http://www.w3.org/2000/svg" xmlns:xlink="http://www.w3.org/1999/xlink">
    <title>Logo Copy</title>
    <g id="Logo-Copy" stroke="none" stroke-width="1" fill="none" fill-rule="evenodd">
        <g id="Guiide" transform="translate(0.220000, 0.800000)" fill-rule="nonzero">
            <path d="M32.248,82.592 C39.1306667,82.592 48.1013333,81.7026667 59.16,79.924 L59.16,79.924 L59.16,38.976 L36.192,38.976 L36.192,52.896 L43.384,52.896 L43.384,68.208 L33.756,68.672 C26.7186667,68.672 22.0786667,66.8546667 19.836,63.22 C17.5933333,59.5853333 16.472,53.2246667 16.472,44.138 C16.472,35.0513333 17.0326667,28.6326667 18.154,24.882 C19.2753333,21.1313333 21.0346667,18.56 23.432,17.168 C25.8293333,15.776 29.986,15.08 35.902,15.08 C41.818,15.08 49.416,15.5826667 58.696,16.588 L58.696,16.588 L59.16,4.176 L54.984,3.364 C46.632,1.74 38.86,0.928 31.668,0.928 C20.1453333,0.928 11.9866667,4.09866667 7.192,10.44 C2.39733333,16.7813333 0,27.1053333 0,41.412 C0,55.7186667 2.30066667,66.1586667 6.902,72.732 C11.5033333,79.3053333 19.952,82.592 32.248,82.592 Z M92.684,82.592 C96.7826667,82.592 101.616,81.0453333 107.184,77.952 L107.184,77.952 L107.184,81.2 L122.612,81.2 L122.612,23.2 L107.068,23.2 L107.068,66.584 L105.56,67.048 C102.544,68.1306667 99.3346667,68.672 95.932,68.672 C92.3746667,68.672 90.132,67.628 89.204,65.54 C88.276,63.452 87.812,59.5466667 87.812,53.824 L87.812,53.824 L87.812,23.2 L72.268,23.2 L72.268,53.592 C72.268,64.032 73.66,71.4753333 76.444,75.922 C79.228,80.3686667 84.6413333,82.592 92.684,82.592 Z" id="Gu" fill="#3E566E"></path>
            <path d="M152.54,15.776 L152.54,2.27373675e-13 L136.996,2.27373675e-13 L136.996,15.776 L152.54,15.776 Z M152.54,81.2 L152.54,23.2 L136.996,23.2 L136.996,81.2 L152.54,81.2 Z" id="i" fill="#E0BD28"></path>
            <path d="M182.468,15.776 L182.468,2.27373675e-13 L166.924,2.27373675e-13 L166.924,15.776 L182.468,15.776 Z M182.468,81.2 L182.468,23.2 L166.924,23.2 L166.924,81.2 L182.468,81.2 Z" id="i" fill="#BD4932"></path>
            <path d="M216.688,82.592 C220.632,82.592 225.310667,81.316 230.724,78.764 L230.724,78.764 L230.724,81.2 L246.152,81.2 L246.152,0 L230.608,0 L230.608,23.432 L228.404,22.968 C223.996,22.1946667 220.554667,21.808 218.08,21.808 C210.037333,21.808 204.024667,24.2246667 200.042,29.058 C196.059333,33.8913333 194.068,41.586 194.068,52.142 C194.068,62.698 195.730667,70.412 199.056,75.284 C202.381333,80.156 208.258667,82.592 216.688,82.592 Z M218.834,68.672 C215.624667,68.672 213.324,67.396 211.932,64.844 C210.54,62.292 209.844,58 209.844,51.968 C209.844,40.832 212.976,35.264 219.24,35.264 C222.565333,35.264 226.354667,35.6506667 230.608,36.424 L230.608,36.424 L230.608,66.932 L228.984,67.28 C225.426667,68.208 222.043333,68.672 218.834,68.672 Z M282.576,82.592 C289.768,82.592 297.810667,81.5093333 306.704,79.344 L306.704,79.344 L306.472,67.86 L303.224,68.208 C297.578667,68.672 291.16,68.904 283.968,68.904 C280.565333,68.904 277.955333,68.1113333 276.138,66.526 C274.320667,64.9406667 273.373333,62.3693333 273.296,58.812 L273.296,58.812 L307.4,58.812 L308.56,48.024 C308.56,30.5466667 300.130667,21.808 283.272,21.808 C266.181333,21.808 257.636,32.2093333 257.636,53.012 C257.636,63.452 259.608,70.992 263.552,75.632 C267.496,80.272 273.837333,82.592 282.576,82.592 Z M293.248,46.98 L273.18,46.98 C273.257333,42.4946667 274.05,39.3046667 275.558,37.41 C277.066,35.5153333 279.656667,34.568 283.33,34.568 C287.003333,34.568 289.574667,35.4766667 291.044,37.294 C292.513333,39.1113333 293.248,42.34 293.248,46.98 L293.248,46.98 Z" id="de" fill="#3E566E"></path>
        </g>
    </g>
</svg>